<svg width="18" height="18" viewBox="0 0 18 18" fill="none" xmlns="http://www.w3.org/2000/svg">
<path d="M13.7461 16.8752C13.0598 16.8752 12.0958 16.627 10.6523 15.8205C8.89696 14.8361 7.53922 13.9273 5.79336 12.186C4.11008 10.5038 3.29094 9.41466 2.1445 7.32848C0.849341 4.97301 1.07012 3.73833 1.31692 3.21063C1.61082 2.57993 2.04465 2.2027 2.6054 1.82829C2.92389 1.61961 3.26094 1.44073 3.61227 1.29391C3.64743 1.27879 3.68012 1.26438 3.7093 1.25137C3.88333 1.17297 4.147 1.0545 4.48098 1.18106C4.70387 1.26473 4.90286 1.43594 5.21434 1.74356C5.85313 2.37356 6.72606 3.77665 7.04809 4.46571C7.2643 4.93012 7.40739 5.23669 7.40774 5.58051C7.40774 5.98305 7.20524 6.29348 6.9595 6.62852C6.91344 6.69145 6.86774 6.75157 6.82344 6.80993C6.5559 7.16149 6.49719 7.26309 6.53586 7.4445C6.61426 7.80907 7.19891 8.89434 8.15973 9.85305C9.12055 10.8118 10.1745 11.3595 10.5405 11.4375C10.7297 11.478 10.8334 11.4168 11.1962 11.1398C11.2482 11.1 11.3016 11.0589 11.3575 11.0178C11.7323 10.739 12.0283 10.5418 12.4214 10.5418H12.4235C12.7656 10.5418 13.0584 10.6901 13.5436 10.9348C14.1764 11.254 15.6216 12.1157 16.2555 12.7552C16.5638 13.066 16.7357 13.2643 16.8198 13.4868C16.9463 13.8218 16.8272 14.0845 16.7495 14.2602C16.7364 14.2894 16.722 14.3214 16.7069 14.3569C16.5589 14.7076 16.379 15.044 16.1694 15.3617C15.7957 15.9207 15.417 16.3534 14.7849 16.6477C14.4603 16.8012 14.1051 16.879 13.7461 16.8752Z" fill="white"/>
</svg>
