<svg width="113" height="36" viewBox="0 0 113 36" fill="none" xmlns="http://www.w3.org/2000/svg">
<path d="M29.6741 9.13953C28.2392 6.54447 26.2415 4.46842 23.678 2.90831C22.1769 2.00542 20.342 1.29292 18.1759 0.776983C16.0098 0.25797 13.0876 0 9.4094 0H0V34.5282C2.40616 33.9999 17.0114 30.8459 24.2934 30.8459C25.1984 30.8459 26.098 30.9073 27.003 31.0179C27.9854 29.9768 28.8463 28.7822 29.5858 27.4401C31.0758 24.7314 31.8236 21.7095 31.8236 18.3743C31.8236 14.8118 31.1062 11.7346 29.6741 9.13953ZM24.4313 24.5256C23.6559 26.1502 22.4943 27.4616 20.9463 28.4566C19.7073 29.2551 18.3442 29.8018 16.8569 30.0966C15.3724 30.3914 13.634 30.5357 11.639 30.5357H7.74827V6.38478H11.639C13.565 6.38478 15.2151 6.52297 16.5975 6.7963C17.9772 7.06963 19.2824 7.55486 20.5075 8.25506C22.1962 9.22245 23.4655 10.5492 24.3154 12.229C25.1653 13.912 25.5902 15.9788 25.5902 18.4296C25.5902 20.8803 25.2039 22.901 24.4313 24.5256Z" fill="white"/>
<path d="M56.8869 30.8182V35.5231H50.3141C42.828 35.09 37.3396 33.3487 32.4915 32.1203V0.116577H56.3268C56.2992 2.02986 56.2688 3.94314 56.2412 5.85335H38.6614V15.2816H54.2572V20.8249H38.6614V30.8212H56.8869V30.8182Z" fill="white"/>
<path d="M82.3475 30.8182V32.1418C80.3055 31.7426 78.2692 31.4907 76.3707 31.4907C67.8747 31.4907 67.8581 34.7737 57.952 35.4862V0.116577H81.7873C81.7597 2.02986 81.7294 3.94314 81.7018 5.85335H64.1219V15.2816H79.7178V20.8249H64.1219V30.8212H82.3475V30.8182Z" fill="white"/>
<path d="M111.061 6.77766C110.195 5.19298 108.97 3.86935 107.383 2.80982C106.042 1.91307 104.505 1.25586 102.772 0.838189C101.039 0.417451 98.9228 0.208618 96.4256 0.208618H85.1316V32.7805C87.0631 33.2749 88.945 33.8646 90.6669 34.4665V26.3189H96.2021C99.1822 26.3189 101.652 25.9596 103.611 25.2441C105.567 24.5254 107.262 23.4506 108.699 22.0133C109.853 20.8586 110.752 19.495 111.395 17.9195C111.994 16.4516 112.317 14.8669 112.358 13.1624C112.355 13.1532 112.358 13.144 112.358 13.1317C112.361 13.0181 112.361 12.9045 112.361 12.7878C112.361 10.3647 111.928 8.36233 111.061 6.77766ZM104.29 18.8378C102.965 20.0816 100.981 20.7019 98.3351 20.7019H91.3236V6.30164H98.3351C100.981 6.30164 102.965 6.92507 104.29 8.16886C105.642 9.40957 106.318 11.1877 106.318 13.5033C106.318 15.8189 105.642 17.5602 104.29 18.8378Z" fill="white"/>
</svg>
