<svg width="18" height="18" viewBox="0 0 18 18" fill="none" xmlns="http://www.w3.org/2000/svg">
<path d="M9.56251 8.95913V16.3124C9.56251 16.4616 9.50324 16.6047 9.39775 16.7102C9.29227 16.8156 9.14919 16.8749 9.00001 16.8749C8.85082 16.8749 8.70775 16.8156 8.60226 16.7102C8.49677 16.6047 8.43751 16.4616 8.43751 16.3124V8.95913C7.45224 8.81692 6.5574 8.30679 5.93309 7.53141C5.30878 6.75603 5.00133 5.77296 5.07262 4.78004C5.1439 3.78712 5.58864 2.85805 6.31732 2.17981C7.046 1.50157 8.00453 1.12451 9.00001 1.12451C9.99549 1.12451 10.954 1.50157 11.6827 2.17981C12.4114 2.85805 12.8561 3.78712 12.9274 4.78004C12.9987 5.77296 12.6912 6.75603 12.0669 7.53141C11.4426 8.30679 10.5478 8.81692 9.56251 8.95913Z" fill="white"/>
</svg>
